HIERARCHY
ROOT Hips
{
	OFFSET 15.585500 22.159004 44.358299
	CHANNELS 6 Xposition Yposition Zposition Zrotation Xrotation Yrotation
	JOINT Chest
	{
		OFFSET -0.128500 0.160400 6.566002
		CHANNELS 6 Xposition Yposition Zposition Zrotation Xrotation Yrotation
		JOINT Chest2
		{
			OFFSET 0.000000 0.000000 3.554802
			CHANNELS 6 Xposition Yposition Zposition Zrotation Xrotation Yrotation
			JOINT Neck
			{
				OFFSET 0.000000 0.000000 8.267998
				CHANNELS 6 Xposition Yposition Zposition Zrotation Xrotation Yrotation
				JOINT Head
				{
					OFFSET 0.000000 0.000002 2.173897
					CHANNELS 6 Xposition Yposition Zposition Zrotation Xrotation Yrotation
					End Site
					{
						OFFSET 0.000000 0.000000 7.718697
					}
				}
			}
			JOINT LeftCollar
			{
				OFFSET 2.057500 0.117599 5.946301
				CHANNELS 6 Xposition Yposition Zposition Zrotation Xrotation Yrotation
				JOINT LeftShoulder
				{
					OFFSET 4.957699 0.000000 0.000000
					CHANNELS 6 Xposition Yposition Zposition Zrotation Xrotation Yrotation
					JOINT LeftElbow
					{
						OFFSET 0.000000 0.000000 -8.465500
						CHANNELS 6 Xposition Yposition Zposition Zrotation Xrotation Yrotation
						JOINT LeftWrist
						{
							OFFSET 0.000000 -0.000002 -14.594898
							CHANNELS 6 Xposition Yposition Zposition Zrotation Xrotation Yrotation
							End Site
							{
								OFFSET 0.000000 0.000000 -2.173901
							}
						}
					}
				}
			}
			JOINT RightCollar
			{
				OFFSET -3.048500 -0.728800 6.604099
				CHANNELS 6 Xposition Yposition Zposition Zrotation Xrotation Yrotation
				JOINT RightShoulder
				{
					OFFSET -3.710299 0.000000 0.000000
					CHANNELS 6 Xposition Yposition Zposition Zrotation Xrotation Yrotation
					JOINT RightElbow
					{
						OFFSET 0.000000 0.000000 -10.450901
						CHANNELS 6 Xposition Yposition Zposition Zrotation Xrotation Yrotation
						JOINT RightWrist
						{
							OFFSET 0.000000 0.000000 -12.539200
							CHANNELS 6 Xposition Yposition Zposition Zrotation Xrotation Yrotation
							End Site
							{
								OFFSET 0.000000 -0.000002 -2.173901
							}
						}
					}
				}
			}
		}
	}
	JOINT LeftHip
	{
		OFFSET 2.442599 -0.601400 -2.767502
		CHANNELS 6 Xposition Yposition Zposition Zrotation Xrotation Yrotation
		JOINT LeftKnee
		{
			OFFSET 0.000000 -0.000002 -17.033703
			CHANNELS 6 Xposition Yposition Zposition Zrotation Xrotation Yrotation
			JOINT LeftAnkle
			{
				OFFSET 0.000000 -0.000002 -19.318800
				CHANNELS 6 Xposition Yposition Zposition Zrotation Xrotation Yrotation
				End Site
				{
					OFFSET 0.000000 -8.281900 0.000000
				}
			}
		}
	}
	JOINT RightHip
	{
		OFFSET -3.126200 -0.601400 -2.283501
		CHANNELS 6 Xposition Yposition Zposition Zrotation Xrotation Yrotation
		JOINT RightKnee
		{
			OFFSET 0.000000 -0.000002 -16.919401
			CHANNELS 6 Xposition Yposition Zposition Zrotation Xrotation Yrotation
			JOINT RightAnkle
			{
				OFFSET 0.000000 -0.000002 -18.035900
				CHANNELS 6 Xposition Yposition Zposition Zrotation Xrotation Yrotation
				End Site
				{
					OFFSET 0.000000 -9.230099 0.000000
				}
			}
		}
	}
}
MOTION
Frames: 5
Frame Time: 0.041667
25.942898 39.608299 9.002995 3.980267 -4.503326 11.934797 -0.128502 0.160400 6.566003 -4.827317 9.163798 -0.014214 -0.000002 -0.000004 3.554805 8.755164 -11.662910 0.608393 -0.000001 0.000003 8.268001 -44.303476 5.500102 5.220148 0.000002 -0.000001 2.173894 -3.419469 4.235900 -6.474913 2.057504 0.117601 5.946304 -23.547651 9.895996 -2.484798 4.957701 0.000004 -0.000008 -2.397449 -18.491959 -142.246899 0.000005 0.000004 -8.465500 -92.485058 -160.797638 -158.940811 -0.000002 -0.000004 -14.594896 36.389038 -19.203859 -19.955142 -3.048505 -0.728803 6.604101 39.008860 2.860212 -44.698428 -3.710287 -0.000001 0.000000 0.911211 -21.796122 105.159484 0.000010 -0.000000 -10.450897 -90.486435 -32.784843 -12.957642 0.000006 -0.000002 -12.539186 669.627539 -12.304267 19.231610 2.442593 -0.601400 -2.767502 129.266057 -9.896640 97.853081 -0.000001 -0.000004 -17.033705 -175.814124 51.511637 166.521419 -0.000002 0.000003 -19.318798 -136.333704 119.800548 393.000151 -3.126199 -0.601405 -2.283497 -131.575999 -26.149883 -88.642660 -0.000001 -0.000001 -16.919397 190.019934 36.275452 -199.939499 0.000000 -0.000003 -18.035898 -24.918081 42.954220 -204.845132
25.937401 39.606003 9.004498 3.980725 -4.463512 11.877362 -0.128501 0.160404 6.566008 -4.851719 9.147170 0.086351 -0.000004 -0.000002 3.554800 8.698895 -11.686652 0.592459 -0.000000 0.000006 8.268000 -44.289931 5.379309 5.139089 0.000001 -0.000005 2.173886 -3.435547 4.197314 -6.449356 2.057507 0.117605 5.946305 -23.547120 9.922271 -2.547226 4.957696 0.000003 0.000000 -2.389136 -18.554526 -142.267813 0.000002 0.000005 -8.465496 -92.481267 -160.779238 -158.938174 0.000009 0.000001 -14.594893 36.405714 -19.195292 -20.007579 -3.048505 -0.728800 6.604094 39.025703 2.879376 -44.683343 -3.710285 -0.000000 0.000005 1.008868 -21.807751 105.264307 -0.000000 0.000002 -10.450891 -90.484304 -32.727623 -12.938771 0.000005 -0.000002 -12.539192 669.637101 -12.229585 19.265177 2.442594 -0.601392 -2.767502 129.279471 -9.832544 97.833546 -0.000003 -0.000005 -17.033701 -175.808181 51.475205 166.572891 -0.000002 -0.000000 -19.318806 -136.271659 119.896799 392.933324 -3.126199 -0.601399 -2.283493 -131.578048 -26.181833 -88.668266 0.000000 0.000003 -16.919401 190.159310 36.271139 -200.092017 -0.000002 -0.000002 -18.035896 -24.880275 42.954049 -204.765602
25.931999 39.603500 9.005898 3.976842 -4.424890 11.816699 -0.128498 0.160396 6.566005 -4.872162 9.131159 0.190299 0.000002 0.000001 3.554801 8.648867 -11.708929 0.578227 0.000005 -0.000008 8.268000 -44.283491 5.248585 5.057508 0.000006 0.000001 2.173894 -3.452013 4.156848 -6.423819 2.057511 0.117593 5.946306 -23.559387 9.948883 -2.629048 4.957696 0.000006 0.000003 -2.367998 -18.631301 -142.265109 -0.000004 -0.000000 -8.465498 -92.494285 -160.751152 -158.932724 -0.000004 0.000003 -14.594904 36.430580 -19.180114 -20.054153 -3.048499 -0.728804 6.604100 39.043410 2.896994 -44.672371 -3.710297 0.000002 -0.000000 1.091015 -21.811629 105.363311 0.000006 -0.000003 -10.450886 -90.497274 -32.676906 -12.927642 0.000005 -0.000001 -12.539190 669.647865 -12.160726 19.288966 2.442598 -0.601399 -2.767505 129.297066 -9.767498 97.810474 0.000002 -0.000001 -17.033705 -175.795204 51.442369 166.606509 -0.000001 0.000001 -19.318802 -136.233806 119.969732 392.895977 -3.126197 -0.601408 -2.283499 -131.574497 -26.217671 -88.690710 0.000002 -0.000003 -16.919399 190.306993 36.265706 -200.254958 -0.000001 -0.000002 -18.035896 -24.841427 42.953451 -204.678080
25.926598 39.600708 9.006996 3.968563 -4.387179 11.753895 -0.128503 0.160399 6.566006 -4.887754 9.115251 0.293191 -0.000000 -0.000003 3.554802 8.605993 -11.729134 0.565812 -0.000005 -0.000005 8.268004 -44.284611 5.106496 4.978446 -0.000001 -0.000001 2.173901 -3.467995 4.114742 -6.400339 2.057499 0.117593 5.946307 -23.589452 9.975625 -2.734298 4.957691 0.000011 0.000010 -2.326360 -18.723635 -142.234933 -0.000003 0.000010 -8.465501 -92.520575 -160.719392 -158.922793 -0.000003 -0.000003 -14.594896 36.459898 -19.159512 -20.098059 -3.048511 -0.728805 6.604097 39.060998 2.912715 -44.658820 -3.710296 0.000002 0.000003 1.156980 -21.816181 105.451892 0.000002 0.000004 -10.450895 -90.513865 -32.633356 -12.923293 0.000009 0.000000 -12.539192 669.656936 -12.097552 19.296446 2.442590 -0.601400 -2.767498 129.318799 -9.701720 97.784875 -0.000001 -0.000005 -17.033703 -175.776107 51.412610 166.624609 -0.000001 -0.000001 -19.318804 -136.215241 120.023240 392.881661 -3.126198 -0.601406 -2.283498 -131.565850 -26.255404 -88.709787 0.000000 -0.000000 -16.919397 190.461109 36.259193 -200.426314 0.000000 -0.000002 -18.035896 -24.802626 42.952297 -204.583058
25.921101 39.597908 9.007698 3.956365 -4.350510 11.690507 -0.128502 0.160410 6.566007 -4.897959 9.099613 0.390989 0.000003 -0.000002 3.554805 8.571050 -11.746045 0.555482 -0.000001 0.000007 8.268005 -44.293217 4.951290 4.904680 0.000001 -0.000001 2.173897 -3.482519 4.071247 -6.381267 2.057502 0.117610 5.946307 -23.640509 10.001608 -2.865550 4.957701 0.000002 0.000002 -2.353428 -18.911829 -142.207271 -0.000004 -0.000001 -8.465500 -92.673468 -160.691962 -158.897917 0.000001 0.000005 -14.594895 36.489913 -19.135181 -20.141811 -3.048505 -0.728797 6.604098 39.078770 2.926383 -44.634538 -3.710291 -0.000002 -0.000002 1.205013 -21.829527 105.524005 0.000006 0.000003 -10.450890 -90.522232 -32.597833 -12.924147 0.000003 -0.000003 -12.539194 669.661471 -12.039188 19.280728 2.442592 -0.601394 -2.767499 129.344494 -9.636179 97.757274 -0.000001 0.000001 -17.033703 -175.751983 51.385596 166.630005 -0.000001 0.000002 -19.318802 -136.210665 120.061817 392.883846 -3.126201 -0.601398 -2.283499 -131.552503 -26.293752 -88.725196 0.000000 0.000001 -16.919397 190.618559 36.251782 -200.603093 -0.000000 -0.000003 -18.035898 -24.765578 42.950098 -204.481370
